<?xml version="1.0" encoding="UTF-8" standalone="no"?>
<!-- Created with Inkscape (http://www.inkscape.org/) -->

<svg
   xmlns:dc="http://purl.org/dc/elements/1.1/"
   xmlns:cc="http://creativecommons.org/ns#"
   xmlns:rdf="http://www.w3.org/1999/02/22-rdf-syntax-ns#"
   xmlns:svg="http://www.w3.org/2000/svg"
   xmlns="http://www.w3.org/2000/svg"
   xmlns:sodipodi="http://sodipodi.sourceforge.net/DTD/sodipodi-0.dtd"
   xmlns:inkscape="http://www.inkscape.org/namespaces/inkscape"
   width="75.000092"
   height="64.999969"
   viewBox="0 0 75.000092 64.99997"
   id="svg2"
   version="1.1"
   inkscape:version="0.91 r13725"
   sodipodi:docname="vilnius-logo.svg">
  <defs
     id="defs4" />
  <sodipodi:namedview
     id="base"
     pagecolor="#ffffff"
     bordercolor="#666666"
     borderopacity="1.0"
     inkscape:pageopacity="0.0"
     inkscape:pageshadow="2"
     inkscape:zoom="3.959798"
     inkscape:cx="19.449029"
     inkscape:cy="-2.5719493"
     inkscape:document-units="px"
     inkscape:current-layer="layer1"
     showgrid="false"
     units="px"
     fit-margin-top="5"
     fit-margin-left="5"
     fit-margin-right="5"
     fit-margin-bottom="5"
     inkscape:window-width="1680"
     inkscape:window-height="988"
     inkscape:window-x="-8"
     inkscape:window-y="-8"
     inkscape:window-maximized="1" />
  <metadata
     id="metadata7">
    <rdf:RDF>
      <cc:Work
         rdf:about="">
        <dc:format>image/svg+xml</dc:format>
        <dc:type
           rdf:resource="http://purl.org/dc/dcmitype/StillImage" />
        <dc:title></dc:title>
      </cc:Work>
    </rdf:RDF>
  </metadata>
  <g
     inkscape:label="Layer 1"
     inkscape:groupmode="layer"
     id="layer1"
     transform="translate(-75.842871,-435.91664)">
    <path
       style="fill:#c1272d;fill-opacity:1"
       d="m 141.04042,495.90315 c -0.58422,-0.063 -1.3758,-0.28797 -1.83307,-0.52095 -1.0788,-0.5496 -1.73987,-1.49603 -1.80945,-2.59049 l -0.021,-0.33034 1.29349,0 1.2935,0 0,0.0934 c 0,0.16699 0.17772,0.43927 0.38452,0.58911 0.29805,0.21593 0.67224,0.32256 1.20381,0.343 0.49975,0.0192 0.82721,-0.0336 1.15871,-0.18684 0.5706,-0.26381 0.73441,-0.79043 0.37209,-1.1962 -0.24454,-0.27385 -0.66901,-0.40083 -1.61441,-0.48292 -1.24109,-0.10777 -1.83497,-0.24772 -2.46852,-0.58175 -0.94526,-0.49835 -1.40337,-1.28494 -1.45954,-2.50609 -0.064,-1.39084 0.5461,-2.42521 1.80566,-3.06135 0.6689,-0.33782 1.31548,-0.47754 2.20601,-0.47669 1.00017,8.4e-4 1.86842,0.24493 2.58232,0.72563 0.83909,0.56499 1.3115,1.36254 1.39305,2.35179 l 0.0233,0.28206 -1.26739,0 -1.26738,0 -0.043,-0.1833 c -0.0768,-0.32721 -0.33118,-0.57479 -0.72616,-0.70681 -0.75682,-0.25297 -1.73175,-0.009 -2.05265,0.5141 -0.14114,0.22995 -0.16738,0.57939 -0.0595,0.79319 0.20212,0.40086 0.56773,0.53716 1.84918,0.6894 1.82046,0.21625 2.62872,0.50654 3.23441,1.16163 0.2457,0.26577 0.46173,0.68073 0.55747,1.07086 0.0896,0.36501 0.0894,1.3323 -2.8e-4,1.68659 -0.30631,1.20932 -1.44421,2.12008 -3.04775,2.43936 -0.37226,0.0741 -1.33358,0.12177 -1.68713,0.0836 z m -10.37633,-0.12466 c -1.73272,-0.2553 -3.00305,-1.33481 -3.35712,-2.85285 -0.0572,-0.24534 -0.0636,-0.58371 -0.0755,-4.02653 l -0.0131,-3.75867 1.28945,0 1.28946,0 0.01,3.6694 0.01,3.66939 0.0943,0.18083 c 0.25739,0.49344 0.89908,0.79682 1.5986,0.75576 0.56282,-0.0331 1.01593,-0.24222 1.27817,-0.59009 0.23196,-0.3077 0.22321,-0.14686 0.22321,-4.10272 l 0,-3.58257 1.27172,0 1.27172,0 -0.01,3.84796 -0.01,3.84795 -0.0986,0.31859 c -0.18985,0.61364 -0.46711,1.07165 -0.91214,1.50664 -0.58304,0.56989 -1.38218,0.95254 -2.30587,1.10412 -0.34722,0.0569 -1.20547,0.0641 -1.55336,0.0128 z m -45.372023,-0.0941 c -0.02461,-0.054 -1.035746,-2.3515 -2.24697,-5.10552 -2.124603,-4.8308 -2.202226,-5.01491 -2.202226,-5.22331 l 0,-0.21601 1.279141,0.0101 1.279144,0.0101 1.1873,2.87066 c 0.653012,1.57885 1.213976,2.92725 1.246584,2.99644 0.05045,0.10702 0.06638,0.1183 0.106811,0.0756 0.0333,-0.0352 2.11094,-5.13619 2.409551,-5.91589 0.01324,-0.0346 0.306652,-0.0447 1.301629,-0.0447 l 1.284532,0 0,0.19667 c 0,0.18228 -0.163141,0.57144 -2.230643,5.32107 l -2.230641,5.12441 -0.569735,0 -0.569734,0 -0.04474,-0.0981 z m 7.092638,-1.16878 0,-1.15986 0.661803,-0.0101 0.661801,-0.0101 0.0091,-2.91946 0.0091,-2.91944 -0.617889,0 -0.617886,0 0,-1.17849 0,-1.1785 2.558969,0 2.558969,0 0,1.1785 0,1.17849 -0.617683,0 -0.617681,0 0,2.92837 0,2.92838 0.670626,0 0.670627,0 0,1.16064 0,1.16064 -2.664858,0 -2.664858,0 0,-1.15986 z m 7.482777,-4.10767 0,-5.2675 1.341248,0 1.34126,0 0,4.07115 0,4.07117 1.90599,0 1.90599,0 0,1.19634 0,1.19635 -3.24724,0 -3.247248,0 0,-5.26751 z m 8.753438,1.10707 0,-4.16044 -0.70592,0 -0.70593,0 0,-1.14278 0,-1.14277 1.16562,0 1.16561,0 2.67284,2.61549 2.67285,2.61549 0.009,-2.57978 0.009,-2.57978 1.37632,0 1.37631,0 0,5.2675 0,5.26751 -0.48532,-0.002 -0.48532,-0.002 -2.6472,-2.58779 -2.64722,-2.58779 -0.009,2.58974 -0.009,2.58973 -1.37632,0 -1.37632,0 0,-4.16045 z m 11.22418,2.99981 0,-1.16064 0.67062,0 0.67063,0 0,-2.92754 0,-2.92753 -0.60887,-0.0101 -0.60885,-0.0101 -0.01,-1.16957 -0.01,-1.16957 2.55946,0 2.55945,0 0,1.1785 0,1.17849 -0.61788,0 -0.6179,0 0.009,2.91945 0.009,2.91945 0.6618,0.0101 0.6618,0.0101 0,1.15985 0,1.15986 -2.66485,0 -2.66486,0 0,-1.16064 z m -11.43596,-16.69174 -1.74715,-0.0215 -5.32972,-3.22816 c -2.931342,-1.7755 -5.343214,-3.2403 -5.359711,-3.25514 -0.0165,-0.0149 0.7614,-6.24454 1.728665,-13.84377 l 1.758663,-13.81681 3.275953,-1.11889 c 1.80177,-0.6154 3.28692,-1.10781 3.3003,-1.09427 0.0134,0.0136 0.16972,0.7074 0.34738,1.54187 0.17766,0.83447 0.3323,1.5266 0.34364,1.53809 0.0258,0.0261 1.96982,-0.41459 2.01502,-0.45672 0.0182,-0.0169 0.0618,-0.72479 0.0972,-1.57302 0.0354,-0.84824 0.0722,-1.55037 0.082,-1.56026 0.0271,-0.0274 8.94294,-0.0216 8.96997,0.006 0.013,0.013 0.0526,0.71799 0.0881,1.56645 0.0356,0.84845 0.0767,1.55316 0.0915,1.56603 0.0543,0.0472 1.99336,0.46976 2.01993,0.44018 0.0151,-0.0168 0.17192,-0.7117 0.34848,-1.54418 0.17659,-0.83249 0.32928,-1.52194 0.33933,-1.53212 0.0134,-0.0135 6.53489,2.18916 6.57316,2.22023 0.0187,0.0152 3.50792,27.53784 3.49876,27.59781 -0.008,0.0526 -1.41431,0.92133 -5.36991,3.31754 l -5.35905,3.24642 -4.98271,0.0128 c -2.74049,0.007 -5.76893,0.003 -6.72987,-0.009 z m 14.45617,-6.57285 c 2.11468,-1.28424 3.85161,-2.34044 3.85982,-2.3471 0.0148,-0.0119 -2.67151,-22.62074 -2.70001,-22.7244 -0.01,-0.0358 -0.28227,-0.13288 -0.81787,-0.29167 -0.44173,-0.13097 -0.80861,-0.23257 -0.81533,-0.22579 -0.007,0.007 -0.15439,0.65976 -0.32821,1.45106 -0.17383,0.7913 -0.31925,1.44091 -0.32316,1.44355 -0.004,0.003 -1.42072,-0.3102 -3.14847,-0.69519 l -3.14136,-0.70002 -0.0215,-1.19629 c -0.0119,-0.65795 -0.0238,-1.31279 -0.0265,-1.45519 l -0.005,-0.25891 -1.99424,0 -1.99423,0 0,1.19095 c 0,0.65504 -0.01,1.31009 -0.0221,1.45567 l -0.0221,0.2647 -3.14572,0.6993 -3.14571,0.6993 -0.3189,-1.44965 c -0.29264,-1.33025 -0.32461,-1.44883 -0.38825,-1.43967 -0.0382,0.006 -0.4029,0.11042 -0.81058,0.2332 l -0.74122,0.2232 -0.0275,0.12393 c -0.0618,0.27821 -2.70541,22.62138 -2.67954,22.64754 0.0154,0.0157 1.75224,1.07696 3.85966,2.35861 l 3.83165,2.33027 5.61076,-9.7e-4 5.61075,-9.8e-4 3.84489,-2.33499 z"
       id="path4147"
       inkscape:connector-curvature="0" />
  </g>
</svg>
